<?xml version="1.0" encoding="utf-8"?>
<!-- Generator: Adobe Illustrator 20.1.0, SVG Export Plug-In . SVG Version: 6.00 Build 0)  -->
<svg version="1.1" id="Слой_1" xmlns="http://www.w3.org/2000/svg" xmlns:xlink="http://www.w3.org/1999/xlink" x="0px" y="0px"
	 viewBox="0 0 48 48" style="enable-background:new 0 0 48 48;" xml:space="preserve">
<style type="text/css">
	.st0{fill:none;}
	.st1{filter:url(#Adobe_OpacityMaskFilter);}
	.st2{fill:#FFFFFF;}
	.st3{mask:url(#mask-2);}
	.st4{fill:url(#Shape_1_);}
</style>
<title>mail</title>
<desc>Created with Sketch.</desc>
<g id="Page-1">
	<g id="MCS-Database-1366" transform="translate(-93.000000, -4667.000000)">
		<g id="Group-3" transform="translate(-56.000000, 4606.000000)">
			<g id="Group-31" transform="translate(56.000000, 0.000000)">
				<g id="Promo-Block">
					<g id="MailRu-Block">
						<g id="mail" transform="translate(93.000000, 61.000000)">
							<rect id="Artboard1" y="0" class="st0" width="142.3" height="48"/>
							<g id="Clipped">
								<g id="Group-Clipped">
									<g id="path-1_1_">
									</g>
									<defs>
										<filter id="Adobe_OpacityMaskFilter" filterUnits="userSpaceOnUse" x="0" y="0" width="142.3" height="48">
											<feColorMatrix  type="matrix" values="1 0 0 0 0  0 1 0 0 0  0 0 1 0 0  0 0 0 1 0"/>
										</filter>
									</defs>
									<mask maskUnits="userSpaceOnUse" x="0" y="0" width="142.3" height="48" id="mask-2">
										<g class="st1">
											<rect id="path-1" y="0" class="st2" width="142.3" height="48"/>
										</g>
									</mask>
									<g id="Group" class="st3">
										<rect id="BG" y="0" class="st0" width="142.3" height="48"/>
										
											<linearGradient id="Shape_1_" gradientUnits="userSpaceOnUse" x1="-220.4987" y1="435.7468" x2="-221.0729" y2="436.4766" gradientTransform="matrix(48 0 0 -48 10622 20957.7207)">
											<stop  offset="0" style="stop-color:#FF7E00"/>
											<stop  offset="1" style="stop-color:#FFAC00"/>
										</linearGradient>
										<path id="Shape" class="st4" d="M24,0C10.8,0,0,10.8,0,24c0,13.2,10.8,24,24,24c4.9,0,9.6-1.5,13.5-4.2l-3.1-3.7
											c-3.1,2-6.7,3-10.4,3C13.4,43.2,4.8,34.6,4.8,24C4.8,13.4,13.4,4.8,24,4.8c10.6,0,19.2,8.6,19.2,19.2
											c0,1.4-0.2,2.8-0.5,4.1c-0.6,2.5-2.4,3.3-3.7,3.2c-1.3-0.1-2.8-1.1-2.9-3.4V24c0-6.7-5.4-12.1-12.1-12.1
											c-6.7,0-12.1,5.4-12.1,12.1c0,6.7,5.4,12.1,12.1,12.1c3.4,0,6.4-1.4,8.6-3.6c1.3,2.1,3.4,3.4,6,3.6c0.2,0,0.4,0,0.6,0
											c1.7,0,3.4-0.6,4.8-1.6c1.4-1.1,2.5-2.7,3.1-4.5c0.1-0.1,0.1-0.3,0.1-0.4l0.1-0.6c0.3-1.6,0.5-3.3,0.5-4.9
											C48,10.8,37.2,0,24,0z M16.7,24c0-4,3.3-7.3,7.3-7.3c4,0,7.3,3.3,7.3,7.3c0,4-3.3,7.3-7.3,7.3C20,31.3,16.7,28,16.7,24z"
											/>
									</g>
								</g>
							</g>
						</g>
					</g>
				</g>
			</g>
		</g>
	</g>
</g>
</svg>
